<?xml version="1.0" encoding="iso-8859-1"?>
<!-- Uploaded to: SVG Repo, www.svgrepo.com, Generator: SVG Repo Mixer Tools -->
<svg fill="#000000" height="800px" width="800px" version="1.1" id="Layer_1" xmlns="http://www.w3.org/2000/svg" xmlns:xlink="http://www.w3.org/1999/xlink" 
	 viewBox="0 0 512 512" xml:space="preserve">
<g>
	<g>
		<path d="M294.957,339.478c40.314,0,74.042-28.725,81.799-66.783h35.071c27.618,0,50.087-22.469,50.087-50.087v-18.809
			C490.684,196.368,512,170.191,512,139.13c0-39.081-33.697-70.266-73.275-66.47C422.699,32.944,379.016,5.565,328.348,5.565
			s-94.352,27.379-110.377,67.095c-39.602-3.799-73.275,27.413-73.275,66.47c0,36.824,29.959,66.783,66.783,66.783h66.783v16.696
			c0,9.206-7.49,16.696-16.696,16.696c-46.527,0-86.787,27.333-105.578,66.783H128c-9.206,0-16.696-7.49-16.696-16.696
			c27.618,0,50.087-22.469,50.087-50.087c0-22.563-14.995-41.688-35.544-47.934c-6.245-20.548-25.372-35.544-47.934-35.544
			c-24.19,0-43.684,16.938-48.757,38.518C11.716,202.564,0,219.918,0,239.304c0,27.618,22.469,50.087,50.087,50.087h27.826
			c0,27.618,22.469,49.976,50.087,49.976h17.893c-0.784,5.455-1.198,11.138-1.198,16.807v16.696H61.217
			c-9.22,0-16.696,7.475-16.696,16.696c0,64.442,52.428,116.87,116.87,116.87h200.348c64.442,0,116.87-52.428,116.87-116.87
			c0-9.22-7.475-16.696-16.696-16.696h-83.478v-16.696c0-9.22-7.475-16.696-16.696-16.696s-16.696,7.475-16.696,16.696v16.696
			h-66.783v-16.696C278.261,346.968,285.751,339.478,294.957,339.478z M50.087,256c-9.206,0-16.696-7.49-16.696-16.696
			c0-8.751,7.247-14.775,14.405-16.204c7.955-1.586,13.619-8.661,13.426-16.77c-0.226-9.512,7.413-17.113,16.691-17.113
			c9.206,0,16.696,7.49,16.696,16.696c0,9.22,7.475,16.696,16.696,16.696c9.206,0,16.696,7.49,16.696,16.696
			c0,9.206-7.49,16.696-16.696,16.696H50.087z M428.522,222.609c0,9.206-7.49,16.696-16.696,16.696h-33.391v-33.391h50.087V222.609z
			 M211.478,172.522c-18.412,0-33.391-14.979-33.391-33.391c0-29.742,36.109-44.503,57.002-23.611c6.52,6.52,17.091,6.52,23.611,0
			c6.519-6.519,6.519-17.091,0-23.611c-2.896-2.897-6.022-5.479-9.32-7.762c11.412-26.421,43.128-45.19,78.967-45.19
			c35.839,0,67.555,18.768,78.966,45.19c-3.298,2.284-6.423,4.866-9.32,7.763c-6.519,6.519-6.518,17.091,0.002,23.611
			s17.092,6.518,23.611-0.001c20.865-20.872,57.001-6.163,57.001,23.611c0,18.412-14.979,33.391-33.391,33.391
			C432.826,172.522,223.967,172.522,211.478,172.522z M443.54,406.15c-7.758,38.055-41.488,66.894-81.801,66.894H161.391
			c-40.313,0-74.044-28.839-81.801-66.894C92.516,406.15,438.392,406.15,443.54,406.15z M244.87,356.174v16.696h-66.783v-16.696
			c0-46.03,37.448-83.478,83.478-83.478c27.618,0,50.087-22.469,50.087-50.087v-16.696h33.391V256
			c0,27.618-22.469,50.087-50.087,50.087C267.339,306.087,244.87,328.556,244.87,356.174z"/>
	</g>
</g>
</svg>