<?xml version="1.0" encoding="utf-8"?>
<!-- Uploaded to: SVG Repo, www.svgrepo.com, Generator: SVG Repo Mixer Tools -->
<svg width="800px" height="800px" viewBox="-24.69 0 188.5 188.5" xmlns="http://www.w3.org/2000/svg">

<defs>

<style>.cls-1{fill:#ffffff;}</style>

</defs>

<g id="Layer_2" data-name="Layer 2">

<g id="Layer_1-2" data-name="Layer 1">

<path d="M.44,53.14c0-10,.25-20.06-.11-30.08C.17,18.63,1.81,16,5.59,14.29,16.3,9.48,27.08,4.9,38.79,3.05a230.74,230.74,0,0,1,71.88-.45c1.14.18,2.3.22,3.41.48,9.88,2.41,13,6.52,13.94,16.7,1,11.4,2.21,22.81,3.85,34.14,3.54,24.39,6.32,48.84,7.23,73.48.1,2.56-.28,5.14-.27,7.71,0,5.43.21,10.85.22,16.28,0,4.28-.13,8.55-.23,12.83-.11,4.87-2.84,7.93-7,9.83a22.71,22.71,0,0,1-4.91,1.52c-21.62,4.28-43.25,8.49-65.18,10.87-8.24.89-16.55,1.23-24.82,1.95-7.64.66-14.73-1.63-21.84-3.84a6,6,0,0,1-4.09-4.09,39.62,39.62,0,0,1-1.71-6.63Q7.18,158.08,5.38,142.3c-.9-8-1.61-16-2.41-23.93-.18-1.71-.47-3.42-.54-5.13Q1.19,83.2,0,53.15ZM128.78,166.2c1.5-9,.68-17,.55-25-.35-22.6-1.66-45.1-5.34-67.48-3-18-5.53-36.18-6.92-54.44a22.14,22.14,0,0,0-.62-4.23,4.3,4.3,0,0,0-3.56-3.31c-2-.31-4-.53-6-.74A301.4,301.4,0,0,0,66.62,9.87,159.81,159.81,0,0,0,31,14.72a94.56,94.56,0,0,0-19.85,8,30.11,30.11,0,0,0-.37,3.53c.42,23.45.34,46.93,1.49,70.34,1,20.84,3.31,41.63,5.33,62.41A77.37,77.37,0,0,0,21.08,177c5.42,2.86,10.47,3.05,15.68,2.34,3.68-.51,7.38-.89,11.08-1.29,10.22-1.1,20.48-2,30.66-3.35,11.61-1.58,23.16-3.6,34.72-5.51C118.28,168.3,123.3,167.24,128.78,166.2Z"/>

<path class="cls-1" d="M128.78,166.2c-5.48,1-10.5,2.1-15.56,2.94-11.56,1.91-23.11,3.93-34.72,5.51C68.32,176,58.06,176.9,47.84,178c-3.7.4-7.4.78-11.08,1.29-5.21.71-10.26.52-15.68-2.34a77.37,77.37,0,0,1-3.48-17.9c-2-20.78-4.3-41.57-5.33-62.41C11.12,73.23,11.2,49.75,10.78,26.3a30.11,30.11,0,0,1,.37-3.53,94.56,94.56,0,0,1,19.85-8A159.81,159.81,0,0,1,66.62,9.87,301.4,301.4,0,0,1,106.93,11c2,.21,4,.43,6,.74A4.3,4.3,0,0,1,116.45,15a22.14,22.14,0,0,1,.62,4.23c1.39,18.26,4,36.4,6.92,54.44,3.68,22.38,5,44.88,5.34,67.48C129.46,149.15,130.28,157.16,128.78,166.2Zm-58.2,3.74c3.43-.26,6.88-.28,10.26-.81,14.06-2.17,24.15-9.23,29.47-23,3.83-9.88,5.66-19.7,3.34-30.15-2.11-9.52-5.87-17.78-14.79-23.06-12-7.08-24.7-10.41-38.55-9.28A28.29,28.29,0,0,0,44.62,90c-14.26,11.79-22.3,26.62-20.4,45.75.74,7.33,3.23,13.94,8.39,19.31C43,165.86,56.09,169.68,70.58,169.94Zm-4-96.22A44.92,44.92,0,0,0,72,73.18c5.17-1,10-2.85,13.26-7.23,6.9-9.38,6.12-22.6-1.92-30.69-7-7-15.9-8.79-25.18-8.9-4.72-.06-8.47,2.33-11.37,6.54a38.12,38.12,0,0,0-6.4,18.43c-.54,5.52.53,11.25,5.16,14.85C51.21,70.59,57.54,74,66.56,73.72Z"/>

<path d="M70.58,169.94c-14.49-.26-27.62-4.08-38-14.85-5.16-5.37-7.65-12-8.39-19.31-1.9-19.13,6.14-34,20.4-45.75a28.29,28.29,0,0,1,15.69-6.38c13.85-1.13,26.59,2.2,38.55,9.28,8.92,5.28,12.68,13.54,14.79,23.06,2.32,10.45.49,20.27-3.34,30.15C105,159.9,94.9,167,80.84,169.13,77.46,169.66,74,169.68,70.58,169.94Zm34.56-46.34c0-8-.55-10-3.54-16.62-1.36-3-3.26-5.54-6.18-6.87a115.66,115.66,0,0,0-15.07-6.06C66,89.8,53.91,93.33,44.42,105.29c-7.08,8.91-10.79,18.84-9.56,30.24,1.18,11,10.44,22.86,22.83,24.88a53.66,53.66,0,0,0,28.63-3.24,17.51,17.51,0,0,0,6.94-4.88C100.06,144,105.07,134.76,105.14,123.6Z"/>

<path d="M66.56,73.72c-9,.32-15.35-3.13-21-7.54-4.63-3.6-5.7-9.33-5.16-14.85a38.12,38.12,0,0,1,6.4-18.43c2.9-4.21,6.65-6.6,11.37-6.54,9.28.11,18.18,1.85,25.18,8.9,8,8.09,8.82,21.31,1.92,30.69C82,70.33,77.17,72.21,72,73.18A44.92,44.92,0,0,1,66.56,73.72Zm-8.17-38c-5.06,5-7,10.83-7.43,17.25-.51,6.79,4.31,12.33,11.09,12.17a31.52,31.52,0,0,0,8.26-1.81c5.88-1.79,8.63-6.18,9.24-12,.94-8.85-5-15.47-14-15.56C63.36,35.69,61.12,35.71,58.39,35.71Z"/>

<path class="cls-1" d="M105.14,123.6c-.07,11.16-5.08,20.36-11.88,28.69a17.51,17.51,0,0,1-6.94,4.88,53.66,53.66,0,0,1-28.63,3.24c-12.39-2-21.65-13.9-22.83-24.88-1.23-11.4,2.48-21.33,9.56-30.24C53.91,93.33,66,89.8,80.35,94.05a115.66,115.66,0,0,1,15.07,6.06c2.92,1.33,4.82,3.87,6.18,6.87C104.59,113.56,105.09,115.58,105.14,123.6Zm-60.29,4.33c-.24,11.48,4.54,18.89,13.79,22.42,10.44,4,23.18.6,31.49-7.84s10.15-27.72-5.46-34.84c-1.82-.83-3.54-1.93-5.42-2.57-5.74-1.95-11.56-3.32-17.71-2.23A14.77,14.77,0,0,0,51,109.55,37.1,37.1,0,0,0,44.85,127.93Z"/>

<path class="cls-1" d="M58.39,35.71c2.73,0,5,0,7.21,0,8.91.09,14.89,6.71,14,15.56-.61,5.86-3.36,10.25-9.24,12a31.52,31.52,0,0,1-8.26,1.81C55.27,65.29,50.45,59.75,51,53,51.44,46.54,53.33,40.75,58.39,35.71Zm7.14,2.84c-8.22,0-11.9,4.35-10.65,12.49.46,3,1.71,5.41,4.48,6.84,1.77.91,3.57,1.78,5.39,2.58C68.4,62.05,71.5,61,74,58.15c3.53-4.09,3.81-8.72,1.87-13.61C74.26,40.58,70.77,38.56,65.53,38.55Z"/>

<path d="M44.85,127.93A37.1,37.1,0,0,1,51,109.55a14.77,14.77,0,0,1,10.52-6.68c6.15-1.09,12,.28,17.71,2.23,1.88.64,3.6,1.74,5.42,2.57,15.61,7.12,13.89,26.29,5.46,34.84s-21,11.84-31.49,7.84C49.39,146.82,44.61,139.41,44.85,127.93Zm40.72-4.44a23.61,23.61,0,0,0-1.44-4.31c-3.34-6.24-13.91-9.57-20.19-6.27a12.23,12.23,0,0,0-4.34,3.9,28.75,28.75,0,0,0-4.48,13.64,14.79,14.79,0,0,0,2.42,8.92c2,3.24,4.89,4.76,8.66,4a28.79,28.79,0,0,0,13.12-5.8C83.65,134,85.06,129.29,85.57,123.49Z"/>

<path d="M65.53,38.55c5.24,0,8.73,2,10.31,6,1.94,4.89,1.66,9.52-1.87,13.61-2.47,2.85-5.57,3.9-9.22,2.31-1.82-.8-3.62-1.67-5.39-2.58-2.77-1.43-4-3.82-4.48-6.84C53.63,42.9,57.31,38.53,65.53,38.55ZM67.7,48.7c-.73-.89-1-1.53-1.41-1.64-1.09-.28-2.38,1.54-2.09,3,.08.43.66.76,1,1.13Z"/>

<path class="cls-1" d="M85.57,123.49c-.51,5.8-1.92,10.54-6.25,14.09a28.79,28.79,0,0,1-13.12,5.8c-3.77.75-6.71-.77-8.66-4a14.79,14.79,0,0,1-2.42-8.92,28.75,28.75,0,0,1,4.48-13.64,12.23,12.23,0,0,1,4.34-3.9c6.28-3.3,16.85,0,20.19,6.27A23.61,23.61,0,0,1,85.57,123.49Z"/>

<path class="cls-1" d="M67.7,48.7l-2.49,2.51c-.35-.37-.93-.7-1-1.13-.29-1.48,1-3.3,2.09-3C66.7,47.17,67,47.81,67.7,48.7Z"/>

</g>

</g>

</svg>
